<svg width="87" height="87" viewBox="0 0 87 87" fill="none" xmlns="http://www.w3.org/2000/svg">
<g filter="url(#filter0_d)">
<rect x="73.6138" y="73.395" width="60" height="60" rx="30" transform="rotate(-180 73.6138 73.395)" fill="#6BA0EE"/>
</g>
<path fill-rule="evenodd" clip-rule="evenodd" d="M48.752 42.4428L48.7538 42.4417C50.2594 41.5477 51.5071 40.2781 52.3746 38.757C53.2421 37.236 53.6997 35.515 53.7026 33.764V32.8456H55.0785V29.1787H32.1489V32.8456H33.5248L33.5248 33.7647C33.5278 35.5157 33.9854 37.236 34.8529 38.757C35.7204 40.2781 36.968 41.5477 38.4736 42.4417L38.4755 42.4428C38.8488 42.6622 39.0285 42.9886 39.0285 43.2866V43.504C39.0285 43.7998 38.8495 44.126 38.4737 44.349C36.968 45.243 35.7204 46.5126 34.8529 48.0337C33.9854 49.5547 33.5278 51.2757 33.5248 53.0267V53.9451H32.1489V57.612H55.0785V53.9451H53.7026V53.026C53.6999 51.2753 53.2425 49.5553 52.3752 48.0345C51.508 46.5137 50.2599 45.2438 48.7546 44.35C48.3781 44.1273 48.199 43.8001 48.199 43.504V43.2866C48.199 42.9886 48.3786 42.6622 48.752 42.4428ZM49.1921 49.8513C49.7436 50.8191 50.0343 51.9135 50.0358 53.0274V53.9451H37.1917V53.0271C37.1934 51.913 37.4843 50.8185 38.036 49.8505C38.5875 48.8827 39.3808 48.0746 40.3383 47.5053C41.8043 46.64 42.6953 45.1455 42.6953 43.504V43.2866C42.6953 41.6439 41.8029 40.1479 40.3367 39.2839C39.3796 38.7147 38.5866 37.9069 38.0354 36.9394C37.484 35.9717 37.1933 34.8771 37.1917 33.7633L37.1917 32.8456H50.0358V33.764C50.0358 36.0241 48.8304 38.1387 46.8915 39.2834C45.4248 40.1474 44.5321 41.6436 44.5321 43.2866V43.504C44.5321 45.1456 45.4233 46.64 46.8905 47.5067C47.8477 48.0758 48.6408 48.8837 49.1921 49.8513Z" fill="white"/>
<defs>
<filter id="filter0_d" x="0.61377" y="0.39502" width="86" height="86" filterUnits="userSpaceOnUse" color-interpolation-filters="sRGB">
<feFlood flood-opacity="0" result="BackgroundImageFix"/>
<feColorMatrix in="SourceAlpha" type="matrix" values="0 0 0 0 0 0 0 0 0 0 0 0 0 0 0 0 0 0 127 0" result="hardAlpha"/>
<feMorphology radius="1" operator="dilate" in="SourceAlpha" result="effect1_dropShadow"/>
<feOffset/>
<feGaussianBlur stdDeviation="6"/>
<feComposite in2="hardAlpha" operator="out"/>
<feColorMatrix type="matrix" values="0 0 0 0 0.683333 0 0 0 0 0.867 0 0 0 0 1 0 0 0 0.3 0"/>
<feBlend mode="normal" in2="BackgroundImageFix" result="effect1_dropShadow"/>
<feBlend mode="normal" in="SourceGraphic" in2="effect1_dropShadow" result="shape"/>
</filter>
</defs>
</svg>
